<?xml version="1.0" standalone="no"?>
<!DOCTYPE svg PUBLIC "-//W3C//DTD SVG 20010904//EN"
 "http://www.w3.org/TR/2001/REC-SVG-20010904/DTD/svg10.dtd">
<svg version="1.0" xmlns="http://www.w3.org/2000/svg"
 width="512.000000pt" height="512.000000pt" viewBox="0 0 512.000000 512.000000"
 preserveAspectRatio="xMidYMid meet">
<metadata>
Created by potrace 1.14, written by Peter Selinger 2001-2017
</metadata>
<g transform="translate(0.000000,512.000000) scale(0.100000,-0.100000)"
fill="#000000" stroke="none">
<path d="M2230 5000 c-453 -47 -877 -207 -1223 -462 -551 -407 -893 -987 -988
-1678 -17 -122 -17 -476 0 -600 59 -435 220 -834 475 -1175 114 -152 327 -366
476 -477 362 -270 719 -415 1185 -480 116 -16 473 -16 595 1 870 118 1582 648
1940 1441 187 416 254 944 176 1390 -8 41 -12 76 -11 78 8 8 93 -80 142 -145
55 -75 71 -84 96 -58 23 22 32 171 19 306 -28 284 -152 532 -348 693 -78 64
-124 75 -239 56 -120 -19 -197 -66 -237 -144 -30 -56 -29 -160 1 -237 49 -128
161 -265 239 -294 61 -23 234 -108 264 -130 22 -16 22 -17 -27 -11 -219 27
-872 35 -1185 16 -264 -17 -678 -63 -896 -101 l-62 -11 -17 -55 c-30 -96 -9
-200 80 -401 20 -46 35 -85 33 -86 -2 -1 -88 -10 -193 -19 -214 -18 -292 -13
-423 28 -296 94 -476 372 -458 710 8 164 63 300 164 408 33 34 44 34 65 -2 9
-16 32 -36 51 -45 102 -48 216 21 216 133 0 148 -193 202 -272 76 l-19 -30 7
30 c18 81 89 160 189 209 63 31 192 66 241 66 29 0 33 3 36 32 5 54 32 64 268
97 405 57 722 76 1017 61 289 -14 506 -49 690 -110 48 -16 89 -28 90 -26 2 2
-39 52 -90 112 -376 440 -920 736 -1507 819 -135 19 -439 27 -560 15z"/>
</g>
</svg>
